<?xml version="1.0" encoding="UTF-8" standalone="no"?>
<!DOCTYPE svg PUBLIC "-//W3C//DTD SVG 1.1//EN" "http://www.w3.org/Graphics/SVG/1.1/DTD/svg11.dtd">
<svg version="1.1" xmlns="http://www.w3.org/2000/svg" xmlns:xlink="http://www.w3.org/1999/xlink" preserveAspectRatio="xMidYMid meet" viewBox="0 0 640 640" width="640" height="640"><defs><path d="M596.01 387.17C596.01 525.15 483.99 637.17 346.01 637.17C208.03 637.17 96.01 525.15 96.01 387.17C96.01 249.19 208.03 137.17 346.01 137.17C483.99 137.17 596.01 249.19 596.01 387.17Z" id="d29jg1g5VF"></path><path d="M571.01 387.17C571.01 511.35 470.19 612.17 346.01 612.17C221.83 612.17 121.01 511.35 121.01 387.17C121.01 262.99 221.83 162.17 346.01 162.17C470.19 162.17 571.01 262.99 571.01 387.17Z" id="e5HMAsdSY1"></path><path d="" id="a18a5Hy0BN"></path><path d="" id="b4bPgCJ5i"></path><path d="" id="ba6YDknXQ"></path><path d="" id="aAd7mYf8X"></path><path d="" id="cpfB4Iq3L"></path><path d="M305 423.42L305 423.42L305 423.42Z" id="bssIe4eHh"></path><path d="" id="a1wPWBExD2"></path><path d="" id="bJJ6VA3Qr"></path><path d="" id="a8J0DNxFF"></path><path d="" id="a1wKcCsHXs"></path><path d="" id="a288hakiJ3"></path><path d="" id="aOsTHRwQf"></path><path d="M321.49 429.45C324.4 430.07 317.95 426.89 320.82 434.85C328.5 456.16 322.17 460.66 323.83 474.47C324.94 483.68 328.99 488.29 335.99 488.3C346.08 486.59 347.13 487.22 339.15 490.22C331.18 493.21 323.63 491.69 316.53 485.64C310.69 478.92 307.22 469.57 306.11 457.59C305 445.6 304.72 435.51 305.27 427.3C313.8 428.24 319.21 428.96 321.49 429.45Z" id="a7e3P2TKKM"></path><path d="M447.14 504.4C455.57 510.83 460.84 514.84 462.95 516.45C468.64 520.79 476.37 521.3 482.59 517.76C483.33 517.34 485.18 516.28 488.14 514.6C488.97 525.04 484.47 530.95 474.64 532.33C464.8 533.71 455.64 524.4 447.14 504.4Z" id="a2rSui8HcH"></path><path d="M375.24 473.21C377.85 481.32 381.59 489.85 386.46 498.79C386.46 498.79 398.63 517.91 398.63 517.91C399.53 519.14 401.79 522.2 405.4 527.11C420.73 541.06 434.15 549.95 445.65 553.78C452.74 556.15 458.65 557.16 463.37 556.82C470.63 556.3 477.68 554.17 484.01 550.57C486.07 549.4 491.22 546.47 499.47 541.78C491.09 549.12 483.73 554.28 477.4 557.28C467.9 561.78 456.4 562.78 437.9 557.28C419.4 551.78 409.9 536.28 398.9 525.78C387.9 515.28 376.9 488.28 373.4 478.71C371.06 472.32 369.9 459.52 369.9 440.28C369.79 450.82 371.58 461.79 375.24 473.21Z" id="c24LMARrAL"></path><path d="M310.46 427.3L305.27 426.79" id="kqyQW3esD"></path><path d="" id="bssYsxd4o"></path><path d="" id="a28tjUtGhJ"></path><path d="M363.91 381.2C358.81 379.42 359.26 377.94 365.27 376.75" id="b1nqABDNyK"></path><path d="" id="eAnqGd1R7"></path><path d="" id="b3jlCdRRqp"></path><path d="" id="aVRALtOT4"></path><path d="M310.19 427.26C342.79 433.46 353.79 424.86 355.19 421.26C356.59 417.65 356.39 414.63 354.39 412.23C353.06 410.63 353.06 409.17 354.39 407.83C357.59 405.7 359.55 403.57 360.26 401.43C360.97 399.3 359.55 397.3 355.99 395.43C357.86 395.17 359.79 393.95 361.79 391.78C363.79 389.62 364.59 387.83 364.19 386.43C360.72 382.3 359.41 379.23 360.26 377.23C361.53 374.23 366.99 374.43 369.39 372.23C370.99 370.77 371.58 369.37 371.17 368.03L355.19 339.03C353.99 336.5 353.72 332.23 354.39 326.23C355.06 320.23 354.79 313.07 353.59 304.74" id="c2SDT72bl"></path><path d="M335.27 433.21L332.25 434.21C330.46 431.25 331.47 429.84 335.27 429.97C340.99 430.17 351.9 427.1 354.23 423.77C356.56 420.44 357.9 418.1 355.9 413.68C353.9 409.26 353.8 412.09 353.73 410.73C353.66 409.37 354.24 408.8 354.9 408.24C358.84 404.84 361.45 402.24 361.29 400.44C361.11 398.44 359.81 396.93 357.39 395.92L361.29 393.28L365.27 387.17C362.69 384.46 361.19 381.99 360.79 379.77C360.19 376.44 361.9 375.77 367.23 374.23C370.78 373.21 372.14 370.83 371.3 367.09L354.23 335.44C354.23 330.99 354.49 326.88 355.02 323.1C355.55 319.33 355.01 311.88 353.38 300.77L358.06 321.73L359.52 323.98C368.44 333.15 376.06 340.73 382.4 346.73C388.73 352.73 396.48 361.9 405.65 374.23C414.81 388.9 421.9 400.4 426.9 408.73C431.9 417.07 435.4 428.66 437.4 443.51L439.4 489.28C440.56 499.78 441.81 508.45 443.15 515.28C444.48 522.11 449.98 529.5 459.65 537.44C461.31 538.13 458.9 536.72 452.4 533.22C445.9 529.72 438.98 522.97 431.65 512.97C429.15 509.3 426.65 505.05 424.15 500.22C421.65 495.38 419.23 488.21 416.9 478.71C414.23 464.38 412.65 455.48 412.15 451.99C411.65 448.51 409.23 441.17 404.9 429.97C397.4 413.97 394.65 408.54 396.65 413.68C399.65 421.39 406.9 446.47 407.15 457.72C407.31 465.22 409.56 474.13 413.9 484.47C409.06 474.97 404.4 465.3 399.9 455.47C395.4 445.63 390.23 430.88 384.4 411.22L387.27 431.46C389.1 439.18 390.24 444.01 390.69 445.94C390.69 445.94 393.09 453.85 393.09 453.85C393.66 455.4 395.1 459.27 397.4 465.47L404.9 481.21C415.73 501.07 426.31 516.09 436.65 526.25C446.98 536.42 458.23 542.09 470.4 543.25C485.56 544.25 493.81 539.34 495.15 528.5C496.48 517.67 493.31 509.17 485.65 503C491.48 508.5 495.56 513.17 497.9 517C501.4 522.75 501.65 549 470.4 549.25C439.15 549.5 417.52 528.71 409.02 521.46C403.36 516.62 397.27 508.79 390.77 497.96C383.94 486.46 379.11 474.21 376.27 461.21C372.02 441.71 372.52 439.21 371.3 420.71C370.48 408.37 368.81 399.62 366.27 394.46C365.61 402.79 365.61 410.12 366.27 416.46C367.27 425.96 364.77 424.96 363.91 445.21C363.04 465.46 364.27 465.46 369.27 481.21C372.61 491.71 378.61 502.79 387.27 514.46C381.77 508.79 375.77 502.79 369.27 496.46C362.77 490.12 355.94 479.37 348.77 464.21L335.27 433.21Z" id="d1iBE8luMd"></path><path d="M256.85 458.86C250.19 430.19 261.52 414.19 267.52 397.19C273.52 380.19 305.85 352.52 315.85 344.86C322.52 339.74 332.96 328.63 347.19 311.52L291.85 360.19L273.85 379.86L231.52 429.83C237.3 411.18 240.63 400.3 241.52 397.19C242.85 392.52 252.52 375.52 254.19 370.86C255.85 366.19 272.52 347.19 279.19 341.86C285.85 336.52 293.19 326.19 301.87 321.52C310.55 316.86 356.52 276.86 360.26 282.86C362.75 286.86 360.73 293.86 354.19 303.86C347.74 324.95 336.12 341.5 319.32 353.5C294.11 371.5 281.52 394.5 267.52 425.5C258.75 444.93 262.74 470.86 279.49 503.3C280.56 505.37 281.68 507.47 282.85 509.6C269.96 494.88 261.3 477.97 256.85 458.86Z" id="c2cHHC9obL"></path><path d="M346.38 274.3L331.71 278.55C317.52 284.55 303.93 291.21 290.93 298.55C277.93 305.88 264.93 317.38 251.93 333.05C238.26 351.38 228.93 368.21 223.93 383.55C218.93 398.88 218.93 423.3 223.93 456.8C225.93 430.97 228.43 414.55 231.43 407.55C235.93 397.05 239.43 389.55 246.93 375.05C251.93 365.38 261.43 354.05 275.43 341.05C291.43 328.05 300.93 319.55 303.93 315.55C306.93 311.55 314.26 306.55 325.93 300.55C341.77 290.4 351.67 284.05 355.63 281.52C358.51 279.67 360.26 276.47 360.26 273.05C360.26 273.05 360.26 273.05 360.26 273.05L346.38 274.3Z" id="a5GhUCX5Zq"></path><path d="M335.27 431.46C349.94 476.29 369.94 507.21 395.27 524.21" id="bvQCQ8Hd8"></path><path d="M177.89 433.65C179.65 434.69 185.79 435.23 187.65 435.28C200.32 435.61 206.32 422.28 211.98 408.95C217.65 395.61 223.98 374.28 224.98 371.28C225.98 368.28 228.32 354.61 244.32 328.61C254.98 311.28 280.54 294.06 320.98 276.95C338.36 270.06 348.54 265.84 351.53 264.28C354.52 262.72 349.64 266.28 338.9 267.61C306.67 271.61 299.32 275.61 267.98 295.28C236.65 314.95 226.65 342.61 222.65 349.61C219.98 354.28 214.65 370.39 206.65 397.95C205.9 405.34 204.14 411.6 201.37 416.71C199.56 420.05 199.32 422.91 195.98 425.28C183.32 434.28 181.32 431.83 176.32 428.83C172.98 426.83 169.32 418.54 165.32 403.95C167.45 420.07 171.64 429.97 177.89 433.65Z" id="e2PvuIn7XW"></path><path d="M389.27 524.21C360.61 500.54 342.27 470.21 334.27 433.21" id="hOsM14CMD"></path><path d="M377.02 519.71C353.19 494.71 338.52 466.21 333.02 434.21" id="dgSmTdhVc"></path><path d="M574 459.5L574 459.5L574 478.71L574 478.71L574 459.5Z" id="ba9ST8758"></path><path d="M335.21 429.45C335.44 431.79 334.99 433.4 333.88 434.29C332.21 435.62 330.55 440.96 333.88 449.96C337.21 458.96 340.55 469.62 344.44 479.62C347.03 486.29 352.65 494.55 361.29 504.4C363.68 505.88 369.66 510.56 379.21 518.43C383.32 521.82 393.68 523.71 410.27 524.11C406.64 525.55 403.31 526.47 400.29 526.86C395.03 527.54 390.7 526.63 389.97 526.46C376.03 523.29 371.21 523.29 358.06 513.62C349.29 507.18 342.9 500.4 338.88 493.29C330.88 481.29 326.88 470.51 326.88 460.96C326.88 451.4 323.77 440.9 317.55 429.45L335.21 429.45Z" id="f8klRq6kmr"></path><path d="" id="b53H5czXq"></path><path d="M360.26 315.68C360.8 318.97 361.14 321.32 361.29 322.74C375.07 336.74 385.79 346.74 393.46 352.74C401.13 358.74 410.23 370.22 420.77 387.17C416.1 379.89 410.98 371.91 405.4 363.24C399.81 354.58 393.5 346.24 386.46 338.24L358.06 303.05C358.99 308.19 359.72 312.4 360.26 315.68Z" id="bLn0Y0JtF"></path><path d="M267.67 293.32C263.24 295.72 259.08 298.59 255.26 301.89C230.64 323.11 217.34 340.91 215.34 355.27C213.12 371.27 207.08 387.09 197.23 402.74C192.42 361.54 207.12 328.31 241.34 303.05C275.56 277.79 312.01 262.65 350.67 257.61C338.14 261.85 330.31 264.5 327.17 265.56C312.42 270.54 298.12 276.78 284.43 284.22C279.75 286.76 275.14 289.26 267.67 293.32Z" id="gK0p6UcYu"></path><path d="M439.6 363.66C452.27 383.99 455.6 399.33 457.6 413.68C458.93 423.25 457.38 436.02 452.93 451.99L454.27 433.6C453.82 412.75 450.27 394.77 443.6 379.66C436.93 364.55 425.6 347.1 409.6 327.33C421.16 337.99 431.16 350.1 439.6 363.66Z" id="cXwPFzDdH"></path><path d="M295.34 266.93C278.9 274.49 259.79 285.93 238.01 301.27C217.12 317.93 203.23 334.04 196.34 349.59C189.45 365.14 189.75 376.7 197.23 384.27C205.97 393.38 205.34 395.58 195.34 390.89C185.34 386.19 179.34 374.31 177.34 355.27C178.01 311.49 196.07 279.49 231.52 259.27C266.97 239.05 305.13 236.81 346.01 252.58C328.67 254.59 311.79 259.38 295.34 266.93Z" id="afe5oQhLl"></path><path d="M472.15 471.6C474.69 471.99 478.21 475 479.38 478.77C482.71 489.54 470.71 499.33 462.71 496.33C454.71 493.33 447.38 487.66 449.05 450C450.71 412.33 448.38 401.41 432.71 370.41C417.05 339.42 411.71 337.74 401.05 321.74C393.94 311.07 382.82 297.91 367.71 282.24C395.94 307.02 417.05 328.74 431.05 347.41C452.05 375.41 456.71 385.74 459.71 396.74C461.71 404.07 462.71 410.74 462.71 416.74L461.05 436.72C459.71 444.31 457.6 452.43 454.71 461.1C450.38 474.1 451.38 481.77 456.71 489.43C462.05 497.1 471.71 494.77 474.21 490.43C475.19 488.74 474.94 486.23 473.47 482.93C473.26 482.45 472.88 482.07 472.4 481.86C471.73 481.55 473.14 482.19 473.14 482.19C470.76 481.11 467.96 481.88 466.46 484.01C466.29 484.24 465.88 484.83 465.21 485.77C461.32 487.1 459.94 484.77 461.05 478.77C462.16 472.77 466.55 465.21 474.21 456.1C482.55 441.21 486.16 425.83 485.05 409.95C483.38 386.13 476.05 374.84 470.38 362.18C464.71 349.51 439.38 321.51 422.05 308.84C404.71 296.18 363.71 269.18 365.02 275.84C365.88 280.29 364.05 288.67 359.52 300.99L395.38 341.66C404.94 356.49 411.38 366.08 414.71 370.41C418.05 374.74 421.92 382.37 426.32 393.28C435.92 416.04 441.05 436.58 441.71 454.91C442.71 482.41 441.71 482.91 447.14 494.41C452.56 505.91 465.21 510.91 474.21 507.91C483.21 504.91 488.21 499.41 491.21 492.88C494.21 486.35 487.71 467.91 477.71 467.91C471.05 467.91 466.88 470.47 465.21 475.6C467.53 472.57 469.84 471.24 472.15 471.6Z" id="bQfDcqxmH"></path><path d="M220.18 304.2C243.52 286.65 268.93 272.22 296.41 260.93C278.81 262.27 255.79 272.49 227.34 291.6C198.9 310.71 183.67 332.49 181.67 356.93C184 339.34 196.83 321.76 220.18 304.2Z" id="gzjuv950C"></path><path d="M238.96 249.82C245.4 246.38 252.22 243.71 259.28 241.86C260.37 241.57 261.02 241.41 261.25 241.36C271.11 239.41 277.22 237.25 287.25 237.01C294.97 236.83 299.64 237.12 307.34 237.96C309.3 238.17 316.65 239.59 329.39 242.22C317.14 235.64 309.79 232.12 307.34 231.68C304.9 231.24 300.9 230.57 295.34 229.68C281.79 227.9 264.34 230.35 243.01 237.01C221.67 243.68 203.56 260.12 188.67 286.35C195.59 280.39 199.92 276.66 201.65 275.17C212.64 265.71 224.63 257.48 237.42 250.65C239.66 249.45 234.8 252.05 238.96 249.82Z" id="fNS4a4n1e"></path><path d="M283.17 70.62L344.01 69.12L404.84 70.62L418.84 78.62L446.34 117.62L344.01 229.12L241.67 117.62L269.17 78.62L283.17 70.62Z" id="dDsNcprwp"></path><path d="M344.01 141.12L321.67 110.12L344.01 83.62L366.34 110.12L366.34 110.12L344.01 141.12Z" id="bfAyP2zWT"></path><path d="M373.34 124.12L344.01 206.12L314.67 124.12L344.01 164.12L373.34 124.12Z" id="b1ttWDWYA6"></path><path d="M358.67 81.12L397.8 81.12L380.84 107.62L358.67 81.12ZM290.22 81.12L329.34 81.12L307.17 107.62L290.22 81.12Z" id="bmhEdjzqi"></path><path d="M395.17 107.62L409.84 83.62L427.34 107.62L395.17 107.62ZM260.67 107.62L278.17 83.62L292.84 107.62L260.67 107.62Z" id="bheqsWjZU"></path><path d="M367.56 182.94L367.98 181.12L368.42 179.32L368.86 177.56L369.32 175.84L369.79 174.15L370.26 172.49L370.75 170.86L371.24 169.27L371.75 167.71L372.26 166.19L372.79 164.7L373.33 163.24L373.87 161.82L374.43 160.43L375 159.07L375.57 157.75L376.16 156.46L376.76 155.2L377.36 153.98L377.98 152.79L378.61 151.63L379.24 150.51L379.89 149.42L380.55 148.36L381.22 147.34L381.89 146.35L382.58 145.39L383.28 144.47L383.99 143.58L384.7 142.73L385.43 141.91L386.17 141.12L386.92 140.36L387.69 139.61L388.47 138.88L389.28 138.16L390.1 137.47L390.93 136.78L391.79 136.12L392.66 135.47L393.55 134.84L394.45 134.22L395.38 133.62L396.32 133.04L397.27 132.47L398.25 131.92L399.24 131.38L400.25 130.87L401.27 130.36L402.32 129.88L403.38 129.41L404.45 128.96L405.55 128.52L406.66 128.1L407.79 127.69L408.93 127.31L410.1 126.94L411.28 126.58L412.47 126.24L413.69 125.92L414.92 125.61L416.17 125.32L417.43 125.05L418.72 124.79L420.02 124.55L421.33 124.33L422.67 124.12L366.34 188.62L366.74 186.69L367.14 184.8L367.14 184.8L367.56 182.94ZM268.91 125.05L270.17 125.32L271.42 125.61L272.65 125.92L273.87 126.24L275.06 126.58L276.24 126.94L277.41 127.31L278.55 127.69L279.68 128.1L280.79 128.52L281.89 128.96L282.96 129.41L284.02 129.88L285.07 130.36L286.09 130.87L287.1 131.38L288.09 131.92L289.07 132.47L290.02 133.04L290.96 133.62L291.89 134.22L292.79 134.84L293.68 135.47L294.55 136.12L295.41 136.78L296.24 137.47L297.06 138.16L297.87 138.88L298.65 139.61L299.42 140.36L300.17 141.12L300.91 141.91L301.64 142.73L302.36 143.58L303.06 144.47L303.76 145.39L304.45 146.35L305.13 147.34L305.79 148.36L306.45 149.42L307.1 150.51L307.74 151.63L308.36 152.79L308.98 153.98L309.59 155.2L310.18 156.46L310.77 157.75L311.35 159.07L311.91 160.43L312.47 161.82L313.01 163.24L313.55 164.7L314.08 166.19L314.59 167.71L315.1 169.27L315.6 170.86L316.08 172.49L316.56 174.15L317.02 175.84L317.48 177.56L317.92 179.32L318.36 181.12L318.78 182.94L319.2 184.8L319.6 186.69L320 188.62L263.67 124.12L265.01 124.33L266.32 124.55L267.62 124.79L267.62 124.79L268.91 125.05Z" id="b7n0ahCO0g"></path></defs><g><g><g><use xlink:href="#d29jg1g5VF" opacity="1" fill="#000000" fill-opacity="1"></use><g><use xlink:href="#d29jg1g5VF" opacity="1" fill-opacity="0" stroke="#000000" stroke-width="3" stroke-opacity="1"></use></g></g><g><use xlink:href="#e5HMAsdSY1" opacity="1" fill="#ffffff" fill-opacity="1"></use><g><use xlink:href="#e5HMAsdSY1" opacity="1" fill-opacity="0" stroke="#000000" stroke-width="3" stroke-opacity="1"></use></g></g><g><g><use xlink:href="#a18a5Hy0BN" opacity="1" fill-opacity="0" stroke="#000000" stroke-width="1" stroke-opacity="1"></use></g></g><g><use xlink:href="#b4bPgCJ5i" opacity="1" fill="#000000" fill-opacity="1"></use><g><use xlink:href="#b4bPgCJ5i" opacity="1" fill-opacity="0" stroke="#000000" stroke-width="1" stroke-opacity="1"></use></g></g><g><g><use xlink:href="#ba6YDknXQ" opacity="1" fill-opacity="0" stroke="#450707" stroke-width="1" stroke-opacity="1"></use></g></g><g><g><use xlink:href="#aAd7mYf8X" opacity="1" fill-opacity="0" stroke="#000000" stroke-width="3" stroke-opacity="1"></use></g></g><g><g><use xlink:href="#cpfB4Iq3L" opacity="1" fill-opacity="0" stroke="#210909" stroke-width="1" stroke-opacity="1"></use></g></g><g><g><use xlink:href="#bssIe4eHh" opacity="1" fill-opacity="0" stroke="#000000" stroke-width="3" stroke-opacity="1"></use></g></g><g><g><use xlink:href="#a1wPWBExD2" opacity="1" fill-opacity="0" stroke="#000000" stroke-width="3" stroke-opacity="1"></use></g></g><g><g><use xlink:href="#bJJ6VA3Qr" opacity="1" fill-opacity="0" stroke="#000000" stroke-width="3" stroke-opacity="1"></use></g></g><g><g><use xlink:href="#a8J0DNxFF" opacity="1" fill-opacity="0" stroke="#000000" stroke-width="3" stroke-opacity="1"></use></g></g><g><g><use xlink:href="#a1wKcCsHXs" opacity="1" fill-opacity="0" stroke="#210909" stroke-width="1" stroke-opacity="1"></use></g></g><g><g><use xlink:href="#a288hakiJ3" opacity="1" fill-opacity="0" stroke="#000000" stroke-width="3" stroke-opacity="1"></use></g></g><g><g><use xlink:href="#aOsTHRwQf" opacity="1" fill-opacity="0" stroke="#000000" stroke-width="1" stroke-opacity="1"></use></g></g><g><use xlink:href="#a7e3P2TKKM" opacity="1" fill="#000000" fill-opacity="1"></use><g><use xlink:href="#a7e3P2TKKM" opacity="1" fill-opacity="0" stroke="#000000" stroke-width="1" stroke-opacity="1"></use></g></g><g><use xlink:href="#a2rSui8HcH" opacity="1" fill="#000000" fill-opacity="1"></use><g><use xlink:href="#a2rSui8HcH" opacity="1" fill-opacity="0" stroke="#000000" stroke-width="1" stroke-opacity="1"></use></g></g><g><use xlink:href="#c24LMARrAL" opacity="1" fill="#000000" fill-opacity="1"></use><g><use xlink:href="#c24LMARrAL" opacity="1" fill-opacity="0" stroke="#000000" stroke-width="1" stroke-opacity="1"></use></g></g><g><g><use xlink:href="#kqyQW3esD" opacity="1" fill-opacity="0" stroke="#000000" stroke-width="1" stroke-opacity="1"></use></g></g><g><g><use xlink:href="#bssYsxd4o" opacity="1" fill-opacity="0" stroke="#110000" stroke-width="1" stroke-opacity="1"></use></g></g><g><g><use xlink:href="#a28tjUtGhJ" opacity="1" fill-opacity="0" stroke="#210909" stroke-width="1" stroke-opacity="1"></use></g></g><g><g><use xlink:href="#b1nqABDNyK" opacity="1" fill-opacity="0" stroke="#110000" stroke-width="1" stroke-opacity="1"></use></g></g><g><g><use xlink:href="#eAnqGd1R7" opacity="1" fill-opacity="0" stroke="#653232" stroke-width="1" stroke-opacity="1"></use></g></g><g><g><use xlink:href="#b3jlCdRRqp" opacity="1" fill-opacity="0" stroke="#110000" stroke-width="1" stroke-opacity="1"></use></g></g><g><g><use xlink:href="#aVRALtOT4" opacity="1" fill-opacity="0" stroke="#210909" stroke-width="1" stroke-opacity="1"></use></g></g><g><g><use xlink:href="#c2SDT72bl" opacity="1" fill-opacity="0" stroke="#000000" stroke-width="1" stroke-opacity="1"></use></g></g><g><use xlink:href="#d1iBE8luMd" opacity="1" fill="#000000" fill-opacity="1"></use><g><use xlink:href="#d1iBE8luMd" opacity="1" fill-opacity="0" stroke="#000000" stroke-width="1" stroke-opacity="1"></use></g></g><g><use xlink:href="#c2cHHC9obL" opacity="1" fill="#000000" fill-opacity="1"></use><g><use xlink:href="#c2cHHC9obL" opacity="1" fill-opacity="0" stroke="#000000" stroke-width="1" stroke-opacity="1"></use></g></g><g><use xlink:href="#a5GhUCX5Zq" opacity="1" fill="#000000" fill-opacity="1"></use><g><use xlink:href="#a5GhUCX5Zq" opacity="1" fill-opacity="0" stroke="#000000" stroke-width="1" stroke-opacity="1"></use></g></g><g><g><use xlink:href="#bvQCQ8Hd8" opacity="1" fill-opacity="0" stroke="#000000" stroke-width="1" stroke-opacity="1"></use></g></g><g><use xlink:href="#e2PvuIn7XW" opacity="1" fill="#000000" fill-opacity="1"></use><g><use xlink:href="#e2PvuIn7XW" opacity="1" fill-opacity="0" stroke="#000000" stroke-width="1" stroke-opacity="1"></use></g></g><g><g><use xlink:href="#hOsM14CMD" opacity="1" fill-opacity="0" stroke="#000000" stroke-width="1" stroke-opacity="1"></use></g></g><g><g><use xlink:href="#dgSmTdhVc" opacity="1" fill-opacity="0" stroke="#000000" stroke-width="1" stroke-opacity="1"></use></g></g><g><use xlink:href="#ba9ST8758" opacity="1" fill="#110404" fill-opacity="1"></use></g><g><use xlink:href="#f8klRq6kmr" opacity="1" fill="#0e0101" fill-opacity="1"></use><g><use xlink:href="#f8klRq6kmr" opacity="1" fill-opacity="0" stroke="#000000" stroke-width="1" stroke-opacity="1"></use></g></g><g><g><use xlink:href="#b53H5czXq" opacity="1" fill-opacity="0" stroke="#450707" stroke-width="1" stroke-opacity="1"></use></g></g><g><use xlink:href="#bLn0Y0JtF" opacity="1" fill="#000000" fill-opacity="1"></use><g><use xlink:href="#bLn0Y0JtF" opacity="1" fill-opacity="0" stroke="#000000" stroke-width="1" stroke-opacity="1"></use></g></g><g><use xlink:href="#gK0p6UcYu" opacity="1" fill="#000000" fill-opacity="1"></use><g><use xlink:href="#gK0p6UcYu" opacity="1" fill-opacity="0" stroke="#000000" stroke-width="1" stroke-opacity="1"></use></g></g><g><use xlink:href="#cXwPFzDdH" opacity="1" fill="#000000" fill-opacity="1"></use><g><use xlink:href="#cXwPFzDdH" opacity="1" fill-opacity="0" stroke="#000000" stroke-width="1" stroke-opacity="1"></use></g></g><g><use xlink:href="#afe5oQhLl" opacity="1" fill="#000000" fill-opacity="1"></use><g><use xlink:href="#afe5oQhLl" opacity="1" fill-opacity="0" stroke="#000000" stroke-width="1" stroke-opacity="1"></use></g></g><g><use xlink:href="#bQfDcqxmH" opacity="1" fill="#000000" fill-opacity="1"></use><g><use xlink:href="#bQfDcqxmH" opacity="1" fill-opacity="0" stroke="#020000" stroke-width="1" stroke-opacity="1"></use></g></g><g><use xlink:href="#gzjuv950C" opacity="1" fill="#ffffff" fill-opacity="1"></use><g><use xlink:href="#gzjuv950C" opacity="1" fill-opacity="0" stroke="#000000" stroke-width="1" stroke-opacity="1"></use></g></g><g><use xlink:href="#fNS4a4n1e" opacity="1" fill="#000000" fill-opacity="1"></use><g><use xlink:href="#fNS4a4n1e" opacity="1" fill-opacity="0" stroke="#000000" stroke-width="1" stroke-opacity="1"></use></g></g><g><use xlink:href="#dDsNcprwp" opacity="1" fill="#000000" fill-opacity="1"></use><g><use xlink:href="#dDsNcprwp" opacity="1" fill-opacity="0" stroke="#000000" stroke-width="1" stroke-opacity="1"></use></g></g><g><use xlink:href="#bfAyP2zWT" opacity="1" fill="#ffffff" fill-opacity="1"></use><g><use xlink:href="#bfAyP2zWT" opacity="1" fill-opacity="0" stroke="#000000" stroke-width="1" stroke-opacity="1"></use></g></g><g><use xlink:href="#b1ttWDWYA6" opacity="1" fill="#ffffff" fill-opacity="1"></use><g><use xlink:href="#b1ttWDWYA6" opacity="1" fill-opacity="0" stroke="#000000" stroke-width="1" stroke-opacity="1"></use></g></g><g><use xlink:href="#bmhEdjzqi" opacity="1" fill="#ffffff" fill-opacity="1"></use><g><use xlink:href="#bmhEdjzqi" opacity="1" fill-opacity="0" stroke="#000000" stroke-width="1" stroke-opacity="1"></use></g></g><g><use xlink:href="#bheqsWjZU" opacity="1" fill="#ffffff" fill-opacity="1"></use><g><use xlink:href="#bheqsWjZU" opacity="1" fill-opacity="0" stroke="#000000" stroke-width="1" stroke-opacity="1"></use></g></g><g><use xlink:href="#b7n0ahCO0g" opacity="1" fill="#ffffff" fill-opacity="1"></use><g><use xlink:href="#b7n0ahCO0g" opacity="1" fill-opacity="0" stroke="#000000" stroke-width="1" stroke-opacity="1"></use></g></g></g></g></svg>