<?xml version="1.0" encoding="UTF-8" standalone="no"?>
<!DOCTYPE svg PUBLIC "-//W3C//DTD SVG 1.1//EN" "http://www.w3.org/Graphics/SVG/1.1/DTD/svg11.dtd">
<svg version="1.1" xmlns="http://www.w3.org/2000/svg" xmlns:xlink="http://www.w3.org/1999/xlink" preserveAspectRatio="xMidYMid meet" viewBox="0 0 640 640" width="640" height="640"><defs><path d="M596.01 387.17C596.01 525.15 483.99 637.17 346.01 637.17C208.03 637.17 96.01 525.15 96.01 387.17C96.01 249.19 208.03 137.17 346.01 137.17C483.99 137.17 596.01 249.19 596.01 387.17Z" id="cYkQDZ7wA"></path><path d="M571.01 387.17C571.01 511.35 470.19 612.17 346.01 612.17C221.83 612.17 121.01 511.35 121.01 387.17C121.01 262.99 221.83 162.17 346.01 162.17C470.19 162.17 571.01 262.99 571.01 387.17Z" id="d4rNmxM9YB"></path><path d="" id="e1oUJyhRYq"></path><path d="" id="a2JpfhxYM"></path><path d="" id="c8c4FTRgNd"></path><path d="" id="eC7xBqf2o"></path><path d="" id="a1M8sZcssF"></path><path d="M831 1167.42L831 1167.42L831 1167.42Z" id="a2ffgTq9G"></path><path d="" id="em3cycuK3"></path><path d="" id="c1dCxHew1d"></path><path d="" id="a1gtehJ3T"></path><path d="" id="c1ZGflTwY"></path><path d="" id="ai2gMvo6Y"></path><path d="" id="a2SQcLtO0Z"></path><path d="M847.49 1173.45C850.4 1174.07 843.95 1170.89 846.82 1178.85C854.5 1200.16 848.17 1204.66 849.83 1218.47C850.94 1227.68 854.99 1232.29 861.99 1232.3C872.08 1230.59 873.13 1231.22 865.15 1234.22C857.18 1237.21 849.63 1235.69 842.53 1229.64C836.69 1222.92 833.22 1213.57 832.11 1201.59C831 1189.6 830.72 1179.51 831.27 1171.3C839.8 1172.24 845.21 1172.96 847.49 1173.45Z" id="b6T7Y8R0pX"></path><path d="M973.14 1248.4C981.57 1254.83 986.84 1258.84 988.95 1260.45C994.64 1264.79 1002.37 1265.3 1008.59 1261.76C1009.33 1261.34 1011.18 1260.28 1014.14 1258.6C1014.97 1269.04 1010.47 1274.95 1000.64 1276.33C990.8 1277.71 981.64 1268.4 973.14 1248.4Z" id="b2elUY7cid"></path><path d="M901.24 1217.21C903.85 1225.32 907.59 1233.85 912.46 1242.79C912.46 1242.79 924.63 1261.91 924.63 1261.91C925.53 1263.14 927.79 1266.2 931.4 1271.11C946.73 1285.06 960.15 1293.95 971.65 1297.78C978.74 1300.15 984.65 1301.16 989.37 1300.82C996.63 1300.3 1003.68 1298.17 1010.01 1294.57C1012.07 1293.4 1017.22 1290.47 1025.47 1285.78C1017.09 1293.12 1009.73 1298.28 1003.4 1301.28C993.9 1305.78 982.4 1306.78 963.9 1301.28C945.4 1295.78 935.9 1280.28 924.9 1269.78C913.9 1259.28 902.9 1232.28 899.4 1222.71C897.06 1216.32 895.9 1203.52 895.9 1184.28C895.79 1194.82 897.58 1205.79 901.24 1217.21Z" id="f10s9BFmCd"></path><path d="M836.46 1171.3L831.27 1170.79" id="cnpq8DXf"></path><path d="" id="j1iwwuP0d"></path><path d="" id="d4iA2KFlb1"></path><path d="M889.91 1125.2C884.81 1123.42 885.26 1121.94 891.27 1120.75" id="j7XweaWRR"></path><path d="" id="b1BMSShIy"></path><path d="" id="aRgVSBoUb"></path><path d="" id="bZejHoIap"></path><path d="M836.19 1171.26C868.79 1177.46 879.79 1168.86 881.19 1165.26C882.59 1161.65 882.39 1158.63 880.39 1156.23C879.06 1154.63 879.06 1153.17 880.39 1151.83C883.59 1149.7 885.55 1147.57 886.26 1145.43C886.97 1143.3 885.55 1141.3 881.99 1139.43C883.86 1139.17 885.79 1137.95 887.79 1135.78C889.79 1133.62 890.59 1131.83 890.19 1130.43C886.72 1126.3 885.41 1123.23 886.26 1121.23C887.53 1118.23 892.99 1118.43 895.39 1116.23C896.99 1114.77 897.58 1113.37 897.17 1112.03L881.19 1083.03C879.99 1080.5 879.72 1076.23 880.39 1070.23C881.06 1064.23 880.79 1057.07 879.59 1048.74" id="bY0YBF6m5"></path><path d="M861.27 1177.21L858.25 1178.21C856.46 1175.25 857.47 1173.84 861.27 1173.97C866.99 1174.17 877.9 1171.1 880.23 1167.77C882.56 1164.44 883.9 1162.1 881.9 1157.68C879.9 1153.26 879.8 1156.09 879.73 1154.73C879.66 1153.37 880.24 1152.8 880.9 1152.24C884.84 1148.84 887.45 1146.24 887.29 1144.44C887.11 1142.44 885.81 1140.93 883.39 1139.92L887.29 1137.28L891.27 1131.17C888.69 1128.46 887.19 1125.99 886.79 1123.77C886.19 1120.44 887.9 1119.77 893.23 1118.23C896.78 1117.21 898.14 1114.83 897.3 1111.09L880.23 1079.44C880.23 1074.99 880.49 1070.88 881.02 1067.1C881.55 1063.33 881.01 1055.88 879.38 1044.77L884.06 1065.73L885.52 1067.98C894.44 1077.15 902.06 1084.73 908.4 1090.73C914.73 1096.73 922.48 1105.9 931.65 1118.23C940.81 1132.9 947.9 1144.4 952.9 1152.73C957.9 1161.07 961.4 1172.66 963.4 1187.51L965.4 1233.28C966.56 1243.78 967.81 1252.45 969.15 1259.28C970.48 1266.11 975.98 1273.5 985.65 1281.44C987.31 1282.13 984.9 1280.72 978.4 1277.22C971.9 1273.72 964.98 1266.97 957.65 1256.97C955.15 1253.3 952.65 1249.05 950.15 1244.22C947.65 1239.38 945.23 1232.21 942.9 1222.71C940.23 1208.38 938.65 1199.48 938.15 1195.99C937.65 1192.51 935.23 1185.17 930.9 1173.97C923.4 1157.97 920.65 1152.54 922.65 1157.68C925.65 1165.39 932.9 1190.47 933.15 1201.72C933.31 1209.22 935.56 1218.13 939.9 1228.47C935.06 1218.97 930.4 1209.3 925.9 1199.47C921.4 1189.63 916.23 1174.88 910.4 1155.22L913.27 1175.46C915.1 1183.18 916.24 1188.01 916.69 1189.94C916.69 1189.94 919.09 1197.85 919.09 1197.85C919.66 1199.4 921.1 1203.27 923.4 1209.47L930.9 1225.21C941.73 1245.07 952.31 1260.09 962.65 1270.25C972.98 1280.42 984.23 1286.09 996.4 1287.25C1011.56 1288.25 1019.81 1283.34 1021.15 1272.5C1022.48 1261.67 1019.31 1253.17 1011.65 1247C1017.48 1252.5 1021.56 1257.17 1023.9 1261C1027.4 1266.75 1027.65 1293 996.4 1293.25C965.15 1293.5 943.52 1272.71 935.02 1265.46C929.36 1260.62 923.27 1252.79 916.77 1241.96C909.94 1230.46 905.11 1218.21 902.27 1205.21C898.02 1185.71 898.52 1183.21 897.3 1164.71C896.48 1152.37 894.81 1143.62 892.27 1138.46C891.61 1146.79 891.61 1154.12 892.27 1160.46C893.27 1169.96 890.77 1168.96 889.91 1189.21C889.04 1209.46 890.27 1209.46 895.27 1225.21C898.61 1235.71 904.61 1246.79 913.27 1258.46C907.77 1252.79 901.77 1246.79 895.27 1240.46C888.77 1234.12 881.94 1223.37 874.77 1208.21L861.27 1177.21Z" id="bG0MYkuRc"></path><path d="M782.85 1202.86C776.19 1174.19 787.52 1158.19 793.52 1141.19C799.52 1124.19 831.85 1096.52 841.85 1088.86C848.52 1083.74 858.96 1072.63 873.19 1055.52L817.85 1104.19L799.85 1123.86L757.52 1173.83C763.3 1155.18 766.63 1144.3 767.52 1141.19C768.85 1136.52 778.52 1119.52 780.19 1114.86C781.85 1110.19 798.52 1091.19 805.19 1085.86C811.85 1080.52 819.19 1070.19 827.87 1065.52C836.55 1060.86 882.52 1020.86 886.26 1026.86C888.75 1030.86 886.73 1037.86 880.19 1047.86C873.74 1068.95 862.12 1085.5 845.32 1097.5C820.11 1115.5 807.52 1138.5 793.52 1169.5C784.75 1188.93 788.74 1214.86 805.49 1247.3C806.56 1249.37 807.68 1251.47 808.85 1253.6C795.96 1238.88 787.3 1221.97 782.85 1202.86Z" id="bgTHuQueW"></path><path d="M872.38 1018.3L857.71 1022.55C843.52 1028.55 829.93 1035.21 816.93 1042.55C803.93 1049.88 790.93 1061.38 777.93 1077.05C764.26 1095.38 754.93 1112.21 749.93 1127.55C744.93 1142.88 744.93 1167.3 749.93 1200.8C751.93 1174.97 754.43 1158.55 757.43 1151.55C761.93 1141.05 765.43 1133.55 772.93 1119.05C777.93 1109.38 787.43 1098.05 801.43 1085.05C817.43 1072.05 826.93 1063.55 829.93 1059.55C832.93 1055.55 840.26 1050.55 851.93 1044.55C867.77 1034.4 877.67 1028.05 881.63 1025.52C884.51 1023.67 886.26 1020.47 886.26 1017.05C886.26 1017.05 886.26 1017.05 886.26 1017.05L872.38 1018.3Z" id="jvWl4v7MF"></path><path d="M861.27 1175.46C875.94 1220.29 895.94 1251.21 921.27 1268.21" id="bmgVfYa9"></path><path d="M703.89 1177.65C705.65 1178.69 711.79 1179.23 713.65 1179.28C726.32 1179.61 732.32 1166.28 737.98 1152.95C743.65 1139.61 749.98 1118.28 750.98 1115.28C751.98 1112.28 754.32 1098.61 770.32 1072.61C780.98 1055.28 806.54 1038.06 846.98 1020.95C864.36 1014.06 874.54 1009.84 877.53 1008.28C880.52 1006.72 875.64 1010.28 864.9 1011.61C832.67 1015.61 825.32 1019.61 793.98 1039.28C762.65 1058.95 752.65 1086.61 748.65 1093.61C745.98 1098.28 740.65 1114.39 732.65 1141.95C731.9 1149.34 730.14 1155.6 727.37 1160.71C725.56 1164.05 725.32 1166.91 721.98 1169.28C709.32 1178.28 707.32 1175.83 702.32 1172.83C698.98 1170.83 695.32 1162.54 691.32 1147.95C693.45 1164.07 697.64 1173.97 703.89 1177.65Z" id="a2vRkxvZJn"></path><path d="M915.27 1268.21C886.61 1244.54 868.27 1214.21 860.27 1177.21" id="c2dr3Xez"></path><path d="M903.02 1263.71C879.19 1238.71 864.52 1210.21 859.02 1178.21" id="aky2BH1Gc"></path><path d="M574 459.5L574 459.5L574 478.71L574 478.71L574 459.5Z" id="c2pQlJQbG"></path><path d="M861.21 1173.45C861.44 1175.79 860.99 1177.4 859.88 1178.29C858.21 1179.62 856.55 1184.96 859.88 1193.96C863.21 1202.96 866.55 1213.62 870.44 1223.62C873.03 1230.29 878.65 1238.55 887.29 1248.4C889.68 1249.88 895.66 1254.56 905.21 1262.43C909.32 1265.82 919.68 1267.71 936.27 1268.11C932.64 1269.55 929.31 1270.47 926.29 1270.86C921.03 1271.54 916.7 1270.63 915.97 1270.46C902.03 1267.29 897.21 1267.29 884.06 1257.62C875.29 1251.18 868.9 1244.4 864.88 1237.29C856.88 1225.29 852.88 1214.51 852.88 1204.96C852.88 1195.4 849.77 1184.9 843.55 1173.45L861.21 1173.45Z" id="e1bAClnaw3"></path><path d="" id="bM0xoZiHf"></path><path d="M886.26 1059.68C886.8 1062.97 887.14 1065.32 887.29 1066.74C901.07 1080.74 911.79 1090.74 919.46 1096.74C927.13 1102.74 936.23 1114.22 946.77 1131.17C942.1 1123.89 936.98 1115.91 931.4 1107.24C925.81 1098.58 919.5 1090.24 912.46 1082.24L884.06 1047.05C884.99 1052.19 885.72 1056.4 886.26 1059.68Z" id="aGiS6f500"></path><path d="M793.67 1037.32C789.24 1039.72 785.08 1042.59 781.26 1045.89C756.64 1067.11 743.34 1084.91 741.34 1099.27C739.12 1115.27 733.08 1131.09 723.23 1146.74C718.42 1105.54 733.12 1072.31 767.34 1047.05C801.56 1021.79 838.01 1006.65 876.67 1001.61C864.14 1005.85 856.31 1008.5 853.17 1009.56C838.42 1014.54 824.12 1020.78 810.43 1028.22C805.75 1030.76 801.14 1033.26 793.67 1037.32Z" id="f1jsijVJMz"></path><path d="M965.6 1107.66C978.27 1127.99 981.6 1143.33 983.6 1157.68C984.93 1167.25 983.38 1180.02 978.93 1195.99L980.27 1177.6C979.82 1156.75 976.27 1138.77 969.6 1123.66C962.93 1108.55 951.6 1091.1 935.6 1071.33C947.16 1081.99 957.16 1094.1 965.6 1107.66Z" id="e3X0fTpDXK"></path><path d="M821.34 1010.93C804.9 1018.49 785.79 1029.93 764.01 1045.27C743.12 1061.93 729.23 1078.04 722.34 1093.59C715.45 1109.14 715.75 1120.7 723.23 1128.27C731.97 1137.38 731.34 1139.58 721.34 1134.89C711.34 1130.19 705.34 1118.31 703.34 1099.27C704.01 1055.49 722.07 1023.49 757.52 1003.27C792.97 983.05 831.13 980.81 872.01 996.58C854.67 998.59 837.79 1003.38 821.34 1010.93Z" id="c2frHHCxqA"></path><path d="M998.15 1215.6C1000.69 1215.99 1004.21 1219 1005.38 1222.77C1008.71 1233.54 996.71 1243.33 988.71 1240.33C980.71 1237.33 973.38 1231.66 975.05 1194C976.71 1156.33 974.38 1145.41 958.71 1114.41C943.05 1083.42 937.71 1081.74 927.05 1065.74C919.94 1055.07 908.82 1041.91 893.71 1026.24C921.94 1051.02 943.05 1072.74 957.05 1091.41C978.05 1119.41 982.71 1129.74 985.71 1140.74C987.71 1148.07 988.71 1154.74 988.71 1160.74L987.05 1180.72C985.71 1188.31 983.6 1196.43 980.71 1205.1C976.38 1218.1 977.38 1225.77 982.71 1233.43C988.05 1241.1 997.71 1238.77 1000.21 1234.43C1001.19 1232.74 1000.94 1230.23 999.47 1226.93C999.26 1226.45 998.88 1226.07 998.4 1225.86C997.73 1225.55 999.14 1226.19 999.14 1226.19C996.76 1225.11 993.96 1225.88 992.46 1228.01C992.29 1228.24 991.88 1228.83 991.21 1229.77C987.32 1231.1 985.94 1228.77 987.05 1222.77C988.16 1216.77 992.55 1209.21 1000.21 1200.1C1008.55 1185.21 1012.16 1169.83 1011.05 1153.95C1009.38 1130.13 1002.05 1118.84 996.38 1106.18C990.71 1093.51 965.38 1065.51 948.05 1052.84C930.71 1040.18 889.71 1013.18 891.02 1019.84C891.88 1024.29 890.05 1032.67 885.52 1044.99L921.38 1085.66C930.94 1100.49 937.38 1110.08 940.71 1114.41C944.05 1118.74 947.92 1126.37 952.32 1137.28C961.92 1160.04 967.05 1180.58 967.71 1198.91C968.71 1226.41 967.71 1226.91 973.14 1238.41C978.56 1249.91 991.21 1254.91 1000.21 1251.91C1009.21 1248.91 1014.21 1243.41 1017.21 1236.88C1020.21 1230.35 1013.71 1211.91 1003.71 1211.91C997.05 1211.91 992.88 1214.47 991.21 1219.6C993.53 1216.57 995.84 1215.24 998.15 1215.6Z" id="c2wouXjByk"></path><path d="M746.18 1048.2C769.52 1030.65 794.93 1016.22 822.41 1004.93C804.81 1006.27 781.79 1016.49 753.34 1035.6C724.9 1054.71 709.67 1076.49 707.67 1100.93C710 1083.34 722.83 1065.76 746.18 1048.2Z" id="avGUNWmAz"></path><path d="M764.96 993.82C771.4 990.38 778.22 987.71 785.28 985.86C786.37 985.57 787.02 985.41 787.25 985.36C797.11 983.41 803.22 981.25 813.25 981.01C820.97 980.83 825.64 981.12 833.34 981.96C835.3 982.17 842.65 983.59 855.39 986.22C843.14 979.64 835.79 976.12 833.34 975.68C830.9 975.24 826.9 974.57 821.34 973.68C807.79 971.9 790.34 974.35 769.01 981.01C747.67 987.68 729.56 1004.12 714.67 1030.35C721.59 1024.39 725.92 1020.66 727.65 1019.17C738.64 1009.71 750.63 1001.48 763.42 994.65C765.66 993.45 760.8 996.05 764.96 993.82Z" id="h27RGrLBYh"></path><path d="M1059.17 104.48L1086.67 143.48L984.34 254.98L984.34 94.98L1045.17 96.48L1059.17 104.48ZM882.01 143.48L909.51 104.48L923.51 96.48L984.34 94.98L984.34 254.98L882.01 143.48Z" id="k6cN31qK5I"></path><path d="M984.34 166.98L984.34 109.48L1006.67 135.98L984.34 166.98ZM962.01 135.98L984.34 109.48L984.34 166.98L962.01 135.98Z" id="c1L79WA4lr"></path><path d="M984.34 189.98L1013.67 149.98L984.34 231.98L984.34 189.98ZM984.34 231.98L955.01 149.98L984.34 189.98L984.34 231.98Z" id="b5feygvmu"></path><path d="M999.01 106.98L1038.13 106.98L1021.17 133.48L999.01 106.98ZM930.55 106.98L969.67 106.98L947.51 133.48L930.55 106.98Z" id="b7YWvfpZyz"></path><path d="M1035.51 133.48L1050.17 109.48L1067.67 133.48L1035.51 133.48ZM901.01 133.48L918.51 109.48L933.17 133.48L901.01 133.48Z" id="gk0DE928I"></path><path d="M1007.07 212.55L1007.47 210.66L1007.89 208.8L1008.32 206.97L1008.75 205.18L1009.2 203.42L1009.65 201.7L1010.12 200L1010.59 198.35L1011.08 196.72L1011.57 195.13L1012.08 193.57L1012.6 192.05L1013.12 190.56L1013.66 189.1L1014.21 187.68L1014.76 186.28L1015.33 184.93L1015.91 183.6L1016.49 182.31L1017.09 181.06L1017.7 179.83L1018.31 178.64L1018.94 177.49L1019.58 176.36L1020.22 175.28L1020.88 174.22L1021.55 173.2L1022.22 172.21L1022.91 171.25L1023.61 170.33L1024.32 169.44L1025.04 168.59L1025.76 167.76L1026.5 166.98L1027.25 166.21L1028.02 165.47L1028.81 164.74L1029.61 164.02L1030.43 163.32L1031.27 162.64L1032.12 161.98L1032.99 161.33L1033.88 160.7L1034.79 160.08L1035.71 159.48L1036.65 158.9L1037.61 158.33L1038.58 157.78L1039.57 157.24L1040.58 156.72L1041.61 156.22L1042.65 155.74L1043.71 155.27L1044.79 154.81L1045.88 154.38L1046.99 153.96L1048.12 153.55L1049.27 153.16L1050.43 152.79L1051.61 152.44L1052.81 152.1L1054.02 151.78L1055.25 151.47L1056.5 151.18L1057.77 150.91L1059.05 150.65L1060.35 150.41L1061.67 150.18L1063 149.98L1006.67 214.48L1007.07 212.55ZM907.96 150.65L909.24 150.91L910.51 151.18L911.75 151.47L912.99 151.78L914.2 152.1L915.4 152.44L916.58 152.79L917.74 153.16L918.89 153.55L920.01 153.96L921.13 154.38L922.22 154.81L923.3 155.27L924.36 155.74L925.4 156.22L926.43 156.72L927.43 157.24L928.43 157.78L929.4 158.33L930.36 158.9L931.3 159.48L932.22 160.08L933.13 160.7L934.01 161.33L934.89 161.98L935.74 162.64L936.58 163.32L937.4 164.02L938.2 164.74L938.99 165.47L939.75 166.21L940.51 166.98L941.24 167.76L941.97 168.59L942.69 169.44L943.4 170.33L944.09 171.25L944.78 172.21L945.46 173.2L946.13 174.22L946.78 175.28L947.43 176.36L948.07 177.49L948.69 178.64L949.31 179.83L949.92 181.06L950.51 182.31L951.1 183.6L951.68 184.93L952.24 186.28L952.8 187.68L953.35 189.1L953.88 190.56L954.41 192.05L954.93 193.57L955.43 195.13L955.93 196.72L956.41 198.35L956.89 200L957.35 201.7L957.81 203.42L958.26 205.18L958.69 206.97L959.12 208.8L959.53 210.66L959.94 212.55L960.33 214.48L904.01 149.98L905.34 150.18L906.66 150.41L907.96 150.65Z" id="b4WuunAL8"></path><path d="M223.31 414.22C236.15 407.67 248.24 399.25 259.6 388.96C279.41 367.62 291.03 349.04 294.48 333.22C297.17 320.88 295.64 310.93 289.9 303.36C286.65 299.07 282.1 295.94 276.93 294.45C260.82 289.8 243.76 292 225.73 301.04C204.78 311.54 185.81 326.56 168.81 346.08C152.86 365.08 145.57 382.89 146.94 399.5C148.32 416.11 160.2 425.69 182.6 428.24C196.91 425.44 210.48 420.76 223.31 414.22Z" id="a1gCV213q6"></path><path d="M199.83 409.76L202.6 414.38L174.46 427.03L171.19 422.03L199.83 409.76Z" id="a272nGUKkr"></path><path d="M214.04 411.82C216.53 410.5 218.08 409.67 218.7 409.34C238.37 398.92 255.49 384.28 268.82 366.45C269.37 365.72 264.77 371.87 268.82 366.45C268.82 366.45 273.78 358.78 273.78 358.78C288.34 332.45 291.11 315.38 282.07 307.57C272.24 299.07 254.77 300.08 229.67 310.59C201.38 325.19 180.55 346.16 167.19 373.51C153.82 400.86 157.97 417.01 179.62 421.96L214.04 411.82Z" id="b1b83yVOV2"></path><path d="M218.56 418.65C235.75 414.35 268.41 413.5 280.32 413.75C292.23 414.01 334.11 418.01 349.58 421.45C365.06 424.89 372.7 430.75 371.53 436.95C370.36 443.14 351.6 448.44 325.6 452.54C308.27 455.28 282.87 455.95 249.39 454.54C220.07 452.88 199.25 449.32 186.93 443.88C174.61 438.43 172.65 433.21 181.04 428.21C194.59 424.7 207.09 421.51 218.56 418.65Z" id="a1aRHx3xYf"></path><path d="M268.06 453.9C286.71 454.3 304.18 452.95 320.48 449.84C336.78 446.74 344.47 442.76 343.53 437.9C341.57 432.68 329.91 428.97 308.54 426.79C287.17 424.61 265.93 424.15 244.84 425.43C227.18 427.12 214.69 429.65 207.37 433.01C200.04 436.37 200.99 440.33 210.22 444.9C210.22 444.9 210.22 444.9 210.22 444.9C224.8 450.54 240.26 453.53 255.88 453.74C257.51 453.76 261.57 453.82 268.06 453.9Z" id="bCb1glx6l"></path><path d="M195.82 445.7C207.37 449.23 223.85 451.84 245.27 453.52C274.61 454.42 300.71 453.57 323.57 450.95C346.42 448.33 362.43 444 371.6 437.98C371.69 446.6 371.59 451.26 371.3 451.97C371.01 452.67 370.44 454.07 369.57 456.18C369.57 456.18 369.57 456.18 369.57 456.18C361.22 460.4 352.36 463.51 343.2 465.41C335.23 467.07 322.5 468.85 305.01 470.76C269.17 474.65 246.42 472.61 221.07 468.96C204.16 466.53 188.98 461.71 175.51 454.52L175.98 432.34C177.66 437.72 184.27 442.17 195.82 445.7Z" id="a5AagIQkc7"></path><path d="M264.44 321.52L274.93 312.43L274.93 312.43L267.29 324.02L271.34 329.46L264.48 327.23L253.99 336.31L261.62 324.73L258.51 318.21L264.44 321.52Z" id="d6dMLWb5G"></path><path d="M441.15 337.18L441.15 262.04C439.15 257.57 436.2 256.49 432.32 258.78C420.47 265.78 412.68 271.77 408.94 276.73C404.76 282.28 402.51 289.04 402.51 295.98C402.51 301.47 402.51 315.21 402.51 337.18L441.15 337.18Z" id="a5PCzMTos"></path><path d="M440 334.61C444.79 334.24 446.83 335.1 446.12 337.18L446.12 382.47L394.22 382.47C394.59 358.53 394.59 344.54 394.22 340.49C393.86 336.44 395.16 334.29 398.13 334.04C398.13 334.04 398.13 334.04 398.13 334.04C411.87 337.35 426.18 337.54 440 334.61C440 334.61 440 334.61 440 334.61Z" id="b10pO4e7ZG"></path><path d="" id="d7As7X8X08"></path><path d="M448.19 379.21C455.37 380.32 455.37 381.4 448.19 382.47C421.41 382.79 403.54 382.79 394.58 382.47C385.61 382.16 385.61 381.08 394.58 379.21" id="aeW3ZdI4F"></path><path d="M453.57 382.47C453.85 438.27 453.85 467.55 453.57 470.31C453.53 470.77 451.1 471.68 446.29 473.02C440.95 474.52 435.45 475.33 429.9 475.44C420.66 475.63 413.09 475.58 407.2 475.27C399.14 474.86 392.69 473.2 387.85 470.31L387.74 382.47L453.57 382.47Z" id="b1yfTlzZtM"></path><path d="" id="e52xEiQbd"></path><path d="M446.67 382.47L446.67 376.32" id="g1wG7OtAk4"></path><path d="M446.67 379.21L449.43 379.21" id="a6YoBpMjF"></path><path d="M530.84 470.42L530.25 470.58L529.63 470.74L528.98 470.89L528.32 471.03L527.63 471.17L526.91 471.31L526.18 471.43L525.41 471.56L524.63 471.67L523.82 471.78L522.99 471.89L522.13 471.99L521.25 472.08L520.35 472.17L519.42 472.25L518.47 472.32L517.5 472.39L516.5 472.46L515.48 472.52L514.44 472.57L513.37 472.62L512.28 472.66L511.16 472.7L510.02 472.73L508.86 472.75L507.67 472.77L506.46 472.78L505.23 472.79L503.97 472.79L502.69 472.79L501.38 472.78L500.06 472.76L498.7 472.74L498.7 472.79L497.35 472.81L496.02 472.83L494.72 472.84L493.44 472.84L492.18 472.84L490.95 472.83L489.73 472.82L488.55 472.8L487.39 472.78L486.25 472.75L485.13 472.71L484.04 472.67L482.97 472.62L481.92 472.57L480.9 472.51L479.91 472.45L478.93 472.38L477.98 472.3L477.06 472.22L476.15 472.13L475.27 472.04L474.42 471.94L473.59 471.83L472.78 471.72L471.99 471.61L471.23 471.49L470.49 471.36L469.78 471.23L469.09 471.09L468.42 470.94L467.78 470.79L467.16 470.64L466.57 470.47L465.99 470.31L465.99 365.96L466.92 366.09L467.85 366.2L468.78 366.32L469.71 366.43L470.65 366.55L471.59 366.66L472.52 366.76L473.47 366.87L474.41 366.97L475.36 367.08L476.3 367.17L477.25 367.27L478.21 367.37L479.16 367.46L480.12 367.55L481.08 367.64L482.04 367.72L483 367.81L483.97 367.89L484.93 367.97L485.9 368.05L486.87 368.12L487.85 368.2L488.82 368.27L489.8 368.34L490.78 368.4L491.77 368.47L492.75 368.53L493.74 368.59L494.73 368.65L495.72 368.71L496.71 368.76L497.71 368.81L498.7 368.86L498.7 368.81L499.7 368.76L500.7 368.71L501.69 368.66L502.68 368.6L503.67 368.54L504.66 368.48L505.64 368.42L506.62 368.35L507.6 368.29L508.58 368.22L509.56 368.15L510.53 368.07L511.5 368L512.47 367.92L513.44 367.84L514.41 367.76L515.37 367.67L516.33 367.59L517.29 367.5L518.25 367.41L519.2 367.31L520.15 367.22L521.1 367.12L522.05 367.02L523 366.92L523.94 366.82L524.88 366.71L525.82 366.61L526.76 366.5L527.69 366.38L528.63 366.27L529.56 366.15L530.49 366.03L531.41 365.91L531.41 470.25L530.84 470.42Z" id="cQq7Ig7wq"></path><path d="M529.18 448.77L526.95 449.16L524.72 449.51L522.49 449.84L520.25 450.13L518.01 450.4L515.77 450.64L513.53 450.84L511.29 451.02L509.04 451.17L506.79 451.29L504.54 451.37L502.29 451.43L500.04 451.46L497.78 451.46L495.52 451.43L493.26 451.37L491 451.29L488.74 451.17L486.47 451.02L484.21 450.84L481.94 450.64L479.66 450.4L477.39 450.13L475.12 449.84L472.84 449.51L470.56 449.16L468.28 448.77L465.99 448.36L465.99 434.28L468.33 434.78L470.66 435.24L472.99 435.67L475.31 436.06L477.63 436.41L479.94 436.73L482.24 437.01L484.54 437.26L486.83 437.47L489.11 437.65L491.39 437.79L493.67 437.9L495.93 437.97L498.2 438.01L500.45 438.01L502.7 437.97L504.95 437.9L507.18 437.79L509.42 437.65L511.64 437.47L513.86 437.26L516.08 437.01L518.29 436.73L520.49 436.41L522.69 436.06L524.88 435.67L527.06 435.24L529.24 434.78L531.41 434.28L531.41 448.36L529.18 448.77Z" id="khmTUF8oO"></path><path d="" id="dcweBed5O"></path><path d="M505.08 362.75L506.73 362.79L508.37 362.84L510 362.9L511.6 362.98L513.19 363.07L514.77 363.17L516.32 363.29L517.86 363.42L519.39 363.56L520.36 363.66L521.31 363.77L522.27 363.88L523.21 363.99L524.14 364.11L525.07 364.24L525.98 364.37L526.89 364.51L527.79 364.65L528.68 364.8L529.56 364.96L530.44 365.11L531.3 365.28L531.4 365.31L531.49 365.36L531.55 365.43L531.6 365.5L531.63 365.59L531.64 365.68L531.64 365.76L531.61 365.85L531.57 365.93L531.52 366L531.44 366.06L531.35 366.09L531.25 366.11L529.96 366.19L528.47 366.28L526.76 366.38L524.85 366.49L522.73 366.62L520.41 366.75L517.87 366.9L515.13 367.06L512.17 367.23L509.01 367.41L505.64 367.61L502.07 367.82L499.2 367.98L499.2 368.04L498.74 368.01L498.28 368.04L498.28 367.98L495.42 367.82L491.84 367.61L488.47 367.41L485.31 367.23L482.35 367.06L479.61 366.9L477.07 366.75L474.75 366.62L472.63 366.49L470.72 366.38L469.01 366.28L467.52 366.19L466.24 366.11L466.13 366.09L466.04 366.06L465.97 366L465.91 365.93L465.87 365.85L465.85 365.76L465.84 365.68L465.85 365.59L465.88 365.5L465.93 365.43L465.99 365.36L466.08 365.31L466.18 365.28L467.05 365.11L467.92 364.96L468.8 364.8L469.69 364.65L470.59 364.51L471.5 364.37L472.42 364.24L473.34 364.11L474.27 363.99L475.22 363.88L476.17 363.77L477.13 363.66L478.09 363.56L479.62 363.42L481.16 363.29L482.71 363.17L484.29 363.07L485.88 362.98L487.48 362.9L489.11 362.84L490.75 362.79L492.41 362.75L494.08 362.73L495.77 362.72L497.48 362.72L498.74 362.74L500 362.72L501.71 362.72L503.4 362.73L505.08 362.75Z" id="b1cHyfO1XR"></path><path d="M708.91 296.97L708.46 297.13L708.01 297.28L707.56 297.42L707.11 297.56L706.65 297.69L706.19 297.82L705.73 297.94L705.26 298.06L704.79 298.17L704.32 298.28L703.84 298.38L703.36 298.48L702.88 298.57L702.4 298.66L701.91 298.74L701.42 298.82L700.93 298.89L700.43 298.96L699.93 299.02L699.43 299.08L698.92 299.13L698.41 299.18L697.9 299.22L697.38 299.26L696.86 299.29L696.34 299.32L695.82 299.34L695.29 299.36L694.76 299.37L694.23 299.38L693.69 299.38L693.15 299.38L692.61 299.37L692.61 299.33L692.29 299.34L691.75 299.34L691.22 299.34L690.68 299.34L690.15 299.33L689.62 299.31L689.1 299.29L688.58 299.27L688.06 299.24L687.55 299.21L687.03 299.17L686.52 299.12L686.02 299.07L685.51 299.02L685.01 298.96L684.52 298.89L684.02 298.82L683.53 298.74L683.04 298.66L682.56 298.58L682.08 298.49L681.6 298.39L681.12 298.29L680.65 298.19L680.18 298.07L679.71 297.96L679.25 297.84L678.79 297.71L678.33 297.58L677.87 297.44L677.42 297.3L676.97 297.16L676.53 297.01L676.09 296.85L675.09 161.85L675.4 161.98L675.73 162.11L676.07 162.23L676.42 162.34L676.79 162.46L677.16 162.57L677.55 162.67L677.96 162.77L678.37 162.87L678.8 162.96L679.24 163.04L679.69 163.13L680.16 163.2L680.64 163.28L681.13 163.35L681.63 163.41L682.15 163.47L682.68 163.53L683.22 163.58L683.77 163.63L684.34 163.67L684.91 163.71L685.51 163.75L686.11 163.78L686.73 163.81L687.35 163.83L688 163.85L688.65 163.86L689.32 163.87L689.99 163.87L690.69 163.87L691.39 163.87L692.11 163.86L692.84 163.85L692.84 163.9L693.45 163.91L694.15 163.91L694.84 163.9L695.52 163.9L696.19 163.88L696.84 163.87L697.48 163.85L698.11 163.82L698.73 163.79L699.33 163.76L699.92 163.72L700.5 163.68L701.07 163.63L701.62 163.58L702.16 163.53L702.69 163.47L703.2 163.41L703.71 163.34L704.2 163.27L704.68 163.19L705.14 163.11L705.59 163.03L706.03 162.94L706.46 162.84L706.88 162.75L707.28 162.64L707.67 162.54L708.05 162.43L708.41 162.31L708.76 162.19L709.1 162.07L709.43 161.94L709.74 161.81L709.35 296.82L708.91 296.97Z" id="c4sJ0p8xE"></path><path d="M692 164.1C698.78 163.93 704.7 163.17 709.74 161.81C708.97 160 703.06 159.18 692 159.35C680.95 159.52 675.31 160.34 675.09 161.81C679.59 163.5 685.22 164.27 692 164.1Z" id="odzP0UsVo"></path><path d="M749.97 297.68L749.47 297.88L748.94 298.06L748.37 298.24L747.75 298.4L747.1 298.55L746.41 298.68L745.67 298.81L744.9 298.92L744.09 299.02L743.23 299.11L742.34 299.19L741.41 299.25L740.43 299.31L739.42 299.35L738.37 299.38L737.27 299.4L736.14 299.4L734.97 299.4L734.09 299.38L733.21 299.4L732.03 299.4L730.9 299.4L729.81 299.38L728.75 299.35L727.74 299.31L726.77 299.25L725.83 299.19L724.94 299.11L724.09 299.02L723.27 298.92L722.5 298.81L721.77 298.68L721.07 298.55L720.42 298.4L719.81 298.24L719.23 298.06L718.7 297.88L718.21 297.68L717.75 297.47L717.75 230.17L718.36 230.44L719 230.69L719.66 230.93L720.34 231.16L721.04 231.37L721.77 231.57L722.52 231.75L723.3 231.92L724.1 232.08L724.92 232.22L725.76 232.35L726.63 232.46L727.52 232.56L728.44 232.65L729.38 232.72L730.34 232.78L731.32 232.82L732.33 232.85L733.36 232.87L734.09 232.87L734.81 232.87L735.84 232.85L736.85 232.82L737.83 232.78L738.79 232.72L739.73 232.65L740.65 232.56L741.54 232.46L742.41 232.35L743.25 232.22L744.07 232.08L744.87 231.92L745.65 231.75L746.4 231.57L747.13 231.37L747.83 231.16L748.51 230.93L749.17 230.69L749.81 230.44L750.42 230.17L750.42 297.47L749.97 297.68Z" id="dl7LZPgBO"></path><path d="" id="crdfGVew"></path><path d="M730.42 233.12L727.21 232.95L724.46 232.74L722.16 232.48L720.33 232.17L718.95 231.81L718.45 231.51L718.16 231.08L718.07 230.57L718.17 230.07L718.48 229.64L718.98 229.36L720.37 229.02L722.21 228.73L724.51 228.5L727.25 228.31L730.44 228.17L734.09 228.08L734.09 233.23L730.42 233.12ZM740.92 228.19L743.66 228.38L745.96 228.61L747.8 228.9L749.19 229.24L749.69 229.52L750 229.95L750.1 230.45L750.01 230.96L749.72 231.39L749.22 231.69L747.84 232.05L746.01 232.36L743.71 232.62L740.96 232.83L737.75 233L734.09 233.11L734.09 227.96L737.73 228.05L740.92 228.19Z" id="b4MaakTGHf"></path><path d="M736.75 232.87C736.75 200.12 736.75 179.66 736.75 171.47C736.75 169.08 734.81 167.14 732.42 167.14C732.42 167.14 736.75 167.14 736.75 167.14C734.36 167.14 732.42 169.08 732.42 171.47C732.42 179.66 732.42 200.12 732.42 232.87L736.75 232.87Z" id="a2fJFleuDJ"></path><path d="M734.59 161.72L730.51 161.72" id="b1eWQMsckN"></path><path d="M734.87 157.76L729.8 157.76" id="gOTLwPVT"></path><path d="M734.87 155.74L728.51 155.74" id="a7j3LFVp5x"></path><path d="M734.8 153.31L727.59 153.31" id="bq9wzd08n"></path><path d="M734.87 150.89L727.09 150.89" id="d1VhZYdZF7"></path><path d="M734.87 145.6L726.37 145.6" id="dq2a47xLQ"></path><path d="M734.87 143.17L726.37 143.17" id="a2WmIdGIOQ"></path><path d="M734.87 140.31L727.09 140.31" id="b2ilaNibcs"></path><path d="" id="bKD7a2zgn"></path><path d="M734.59 135.46L728.94 135.46" id="b118rPVwcp"></path><path d="M734.59 133.31L729.94 133.31" id="a3uLkwZJj"></path><path d="M734.59 131.03L731.76 131.03" id="a4tzJiW2t"></path><path d="M734.59 129.17L733.09 129.17" id="acSf9jY7S"></path><path d="M734.87 137.89L727.8 137.89" id="a1ChUtbumA"></path><path d="M734.87 148.31L726.37 148.31" id="e1WILbMql0"></path><path d="M734.59 159.76L729.94 159.76" id="aprGimuqq"></path><path d="M734.87 227.72C726.43 227.88 720.98 228.7 718.54 230.17C720.93 231.74 726.37 232.64 734.87 232.87" id="c5qF9jZ8mb"></path><path d="M734.59 163.69L731.34 163.69" id="dtU9nfkaj"></path><path d="M734.59 165.62L732.42 165.62" id="b4GcJV8wo"></path><path d="M734.44 161.72L738.51 161.72" id="a1Uu1kTTwN"></path><path d="M734.44 133.31L739.09 133.31" id="b9YnPrmk9"></path><path d="M734.23 153.31L741.44 153.31" id="fC2gkHmw0"></path><path d="M734.16 155.74L740.51 155.74" id="a41nYDBfBq"></path><path d="M734.16 157.76L739.23 157.76" id="b7BGBHQpgo"></path><path d="M734.16 150.89L741.94 150.89" id="i62IMwF4k1"></path><path d="M734.16 145.6L742.66 145.6" id="dqwigF9y1"></path><path d="M734.16 143.17L742.66 143.17" id="c2Cmi9jQCh"></path><path d="M734.16 140.31L741.94 140.31" id="a7cXRykPR"></path><path d="M734.44 135.46L740.09 135.46" id="b50aC9a6iG"></path><path d="M734.44 131.03L737.26 131.03" id="a2dmA41pqS"></path><path d="M734.44 129.17L735.94 129.17" id="bcfHeHMgZ"></path><path d="M734.16 137.89L741.23 137.89" id="b3S4XPvI"></path><path d="M734.16 148.31L742.66 148.31" id="b2XJcSZ8AC"></path><path d="M734.44 163.69L737.69 163.69" id="e1rTM3mUgT"></path><path d="M734.44 159.76L739.09 159.76" id="e2s9nlLdgd"></path><path d="M736.61 165.62L734.44 165.62" id="c6kdtnMuGy"></path></defs><g><g><g><use xlink:href="#cYkQDZ7wA" opacity="1" fill="#000000" fill-opacity="1"></use><g><use xlink:href="#cYkQDZ7wA" opacity="1" fill-opacity="0" stroke="#000000" stroke-width="3" stroke-opacity="1"></use></g></g><g><use xlink:href="#d4rNmxM9YB" opacity="1" fill="#ffffff" fill-opacity="1"></use><g><use xlink:href="#d4rNmxM9YB" opacity="1" fill-opacity="0" stroke="#000000" stroke-width="3" stroke-opacity="1"></use></g></g><g><g><use xlink:href="#e1oUJyhRYq" opacity="1" fill-opacity="0" stroke="#000000" stroke-width="1" stroke-opacity="1"></use></g></g><g><use xlink:href="#a2JpfhxYM" opacity="1" fill="#000000" fill-opacity="1"></use><g><use xlink:href="#a2JpfhxYM" opacity="1" fill-opacity="0" stroke="#000000" stroke-width="1" stroke-opacity="1"></use></g></g><g><g><use xlink:href="#c8c4FTRgNd" opacity="1" fill-opacity="0" stroke="#450707" stroke-width="1" stroke-opacity="1"></use></g></g><g><g><use xlink:href="#eC7xBqf2o" opacity="1" fill-opacity="0" stroke="#000000" stroke-width="3" stroke-opacity="1"></use></g></g><g><g><use xlink:href="#a1M8sZcssF" opacity="1" fill-opacity="0" stroke="#210909" stroke-width="1" stroke-opacity="1"></use></g></g><g><g><use xlink:href="#a2ffgTq9G" opacity="1" fill-opacity="0" stroke="#000000" stroke-width="3" stroke-opacity="1"></use></g></g><g><g><use xlink:href="#em3cycuK3" opacity="1" fill-opacity="0" stroke="#000000" stroke-width="3" stroke-opacity="1"></use></g></g><g><g><use xlink:href="#c1dCxHew1d" opacity="1" fill-opacity="0" stroke="#000000" stroke-width="3" stroke-opacity="1"></use></g></g><g><g><use xlink:href="#a1gtehJ3T" opacity="1" fill-opacity="0" stroke="#000000" stroke-width="3" stroke-opacity="1"></use></g></g><g><g><use xlink:href="#c1ZGflTwY" opacity="1" fill-opacity="0" stroke="#210909" stroke-width="1" stroke-opacity="1"></use></g></g><g><g><use xlink:href="#ai2gMvo6Y" opacity="1" fill-opacity="0" stroke="#000000" stroke-width="3" stroke-opacity="1"></use></g></g><g><g><use xlink:href="#a2SQcLtO0Z" opacity="1" fill-opacity="0" stroke="#000000" stroke-width="1" stroke-opacity="1"></use></g></g><g><use xlink:href="#b6T7Y8R0pX" opacity="1" fill="#000000" fill-opacity="1"></use><g><use xlink:href="#b6T7Y8R0pX" opacity="1" fill-opacity="0" stroke="#000000" stroke-width="1" stroke-opacity="1"></use></g></g><g><use xlink:href="#b2elUY7cid" opacity="1" fill="#000000" fill-opacity="1"></use><g><use xlink:href="#b2elUY7cid" opacity="1" fill-opacity="0" stroke="#000000" stroke-width="1" stroke-opacity="1"></use></g></g><g><use xlink:href="#f10s9BFmCd" opacity="1" fill="#000000" fill-opacity="1"></use><g><use xlink:href="#f10s9BFmCd" opacity="1" fill-opacity="0" stroke="#000000" stroke-width="1" stroke-opacity="1"></use></g></g><g><g><use xlink:href="#cnpq8DXf" opacity="1" fill-opacity="0" stroke="#000000" stroke-width="1" stroke-opacity="1"></use></g></g><g><g><use xlink:href="#j1iwwuP0d" opacity="1" fill-opacity="0" stroke="#110000" stroke-width="1" stroke-opacity="1"></use></g></g><g><g><use xlink:href="#d4iA2KFlb1" opacity="1" fill-opacity="0" stroke="#210909" stroke-width="1" stroke-opacity="1"></use></g></g><g><g><use xlink:href="#j7XweaWRR" opacity="1" fill-opacity="0" stroke="#110000" stroke-width="1" stroke-opacity="1"></use></g></g><g><g><use xlink:href="#b1BMSShIy" opacity="1" fill-opacity="0" stroke="#653232" stroke-width="1" stroke-opacity="1"></use></g></g><g><g><use xlink:href="#aRgVSBoUb" opacity="1" fill-opacity="0" stroke="#110000" stroke-width="1" stroke-opacity="1"></use></g></g><g><g><use xlink:href="#bZejHoIap" opacity="1" fill-opacity="0" stroke="#210909" stroke-width="1" stroke-opacity="1"></use></g></g><g><g><use xlink:href="#bY0YBF6m5" opacity="1" fill-opacity="0" stroke="#000000" stroke-width="1" stroke-opacity="1"></use></g></g><g><use xlink:href="#bG0MYkuRc" opacity="1" fill="#000000" fill-opacity="1"></use><g><use xlink:href="#bG0MYkuRc" opacity="1" fill-opacity="0" stroke="#000000" stroke-width="1" stroke-opacity="1"></use></g></g><g><use xlink:href="#bgTHuQueW" opacity="1" fill="#000000" fill-opacity="1"></use><g><use xlink:href="#bgTHuQueW" opacity="1" fill-opacity="0" stroke="#000000" stroke-width="1" stroke-opacity="1"></use></g></g><g><use xlink:href="#jvWl4v7MF" opacity="1" fill="#000000" fill-opacity="1"></use><g><use xlink:href="#jvWl4v7MF" opacity="1" fill-opacity="0" stroke="#000000" stroke-width="1" stroke-opacity="1"></use></g></g><g><g><use xlink:href="#bmgVfYa9" opacity="1" fill-opacity="0" stroke="#000000" stroke-width="1" stroke-opacity="1"></use></g></g><g><use xlink:href="#a2vRkxvZJn" opacity="1" fill="#000000" fill-opacity="1"></use><g><use xlink:href="#a2vRkxvZJn" opacity="1" fill-opacity="0" stroke="#000000" stroke-width="1" stroke-opacity="1"></use></g></g><g><g><use xlink:href="#c2dr3Xez" opacity="1" fill-opacity="0" stroke="#000000" stroke-width="1" stroke-opacity="1"></use></g></g><g><g><use xlink:href="#aky2BH1Gc" opacity="1" fill-opacity="0" stroke="#000000" stroke-width="1" stroke-opacity="1"></use></g></g><g><use xlink:href="#c2pQlJQbG" opacity="1" fill="#110404" fill-opacity="1"></use></g><g><use xlink:href="#e1bAClnaw3" opacity="1" fill="#0e0101" fill-opacity="1"></use><g><use xlink:href="#e1bAClnaw3" opacity="1" fill-opacity="0" stroke="#000000" stroke-width="1" stroke-opacity="1"></use></g></g><g><g><use xlink:href="#bM0xoZiHf" opacity="1" fill-opacity="0" stroke="#450707" stroke-width="1" stroke-opacity="1"></use></g></g><g><use xlink:href="#aGiS6f500" opacity="1" fill="#000000" fill-opacity="1"></use><g><use xlink:href="#aGiS6f500" opacity="1" fill-opacity="0" stroke="#000000" stroke-width="1" stroke-opacity="1"></use></g></g><g><use xlink:href="#f1jsijVJMz" opacity="1" fill="#000000" fill-opacity="1"></use><g><use xlink:href="#f1jsijVJMz" opacity="1" fill-opacity="0" stroke="#000000" stroke-width="1" stroke-opacity="1"></use></g></g><g><use xlink:href="#e3X0fTpDXK" opacity="1" fill="#000000" fill-opacity="1"></use><g><use xlink:href="#e3X0fTpDXK" opacity="1" fill-opacity="0" stroke="#000000" stroke-width="1" stroke-opacity="1"></use></g></g><g><use xlink:href="#c2frHHCxqA" opacity="1" fill="#000000" fill-opacity="1"></use><g><use xlink:href="#c2frHHCxqA" opacity="1" fill-opacity="0" stroke="#000000" stroke-width="1" stroke-opacity="1"></use></g></g><g><use xlink:href="#c2wouXjByk" opacity="1" fill="#000000" fill-opacity="1"></use><g><use xlink:href="#c2wouXjByk" opacity="1" fill-opacity="0" stroke="#020000" stroke-width="1" stroke-opacity="1"></use></g></g><g><use xlink:href="#avGUNWmAz" opacity="1" fill="#ffffff" fill-opacity="1"></use><g><use xlink:href="#avGUNWmAz" opacity="1" fill-opacity="0" stroke="#000000" stroke-width="1" stroke-opacity="1"></use></g></g><g><use xlink:href="#h27RGrLBYh" opacity="1" fill="#000000" fill-opacity="1"></use><g><use xlink:href="#h27RGrLBYh" opacity="1" fill-opacity="0" stroke="#000000" stroke-width="1" stroke-opacity="1"></use></g></g><g><use xlink:href="#k6cN31qK5I" opacity="1" fill="#000000" fill-opacity="1"></use><g><use xlink:href="#k6cN31qK5I" opacity="1" fill-opacity="0" stroke="#000000" stroke-width="1" stroke-opacity="1"></use></g></g><g><use xlink:href="#c1L79WA4lr" opacity="1" fill="#ffffff" fill-opacity="1"></use><g><use xlink:href="#c1L79WA4lr" opacity="1" fill-opacity="0" stroke="#ffffff" stroke-width="1" stroke-opacity="1"></use></g></g><g><use xlink:href="#b5feygvmu" opacity="1" fill="#ffffff" fill-opacity="1"></use><g><use xlink:href="#b5feygvmu" opacity="1" fill-opacity="0" stroke="#ffffff" stroke-width="1" stroke-opacity="1"></use></g></g><g><use xlink:href="#b7YWvfpZyz" opacity="1" fill="#ffffff" fill-opacity="1"></use><g><use xlink:href="#b7YWvfpZyz" opacity="1" fill-opacity="0" stroke="#000000" stroke-width="1" stroke-opacity="1"></use></g></g><g><use xlink:href="#gk0DE928I" opacity="1" fill="#ffffff" fill-opacity="1"></use><g><use xlink:href="#gk0DE928I" opacity="1" fill-opacity="0" stroke="#000000" stroke-width="1" stroke-opacity="1"></use></g></g><g><use xlink:href="#b4WuunAL8" opacity="1" fill="#ffffff" fill-opacity="1"></use><g><use xlink:href="#b4WuunAL8" opacity="1" fill-opacity="0" stroke="#000000" stroke-width="1" stroke-opacity="1"></use></g></g><g><use xlink:href="#a1gCV213q6" opacity="1" fill="#000000" fill-opacity="1"></use><g><use xlink:href="#a1gCV213q6" opacity="1" fill-opacity="0" stroke="#000000" stroke-width="1" stroke-opacity="1"></use></g></g><g><g><use xlink:href="#a272nGUKkr" opacity="1" fill-opacity="0" stroke="#000000" stroke-width="1" stroke-opacity="1"></use></g></g><g><use xlink:href="#b1b83yVOV2" opacity="1" fill="#ffffff" fill-opacity="1"></use><g><use xlink:href="#b1b83yVOV2" opacity="1" fill-opacity="0" stroke="#000000" stroke-width="1" stroke-opacity="1"></use></g></g><g><use xlink:href="#a1aRHx3xYf" opacity="1" fill="#000000" fill-opacity="1"></use><g><use xlink:href="#a1aRHx3xYf" opacity="1" fill-opacity="0" stroke="#000000" stroke-width="1" stroke-opacity="1"></use></g></g><g><use xlink:href="#bCb1glx6l" opacity="1" fill="#ffffff" fill-opacity="1"></use><g><use xlink:href="#bCb1glx6l" opacity="1" fill-opacity="0" stroke="#000000" stroke-width="1" stroke-opacity="1"></use></g></g><g><g><use xlink:href="#a5AagIQkc7" opacity="1" fill-opacity="0" stroke="#000000" stroke-width="1" stroke-opacity="1"></use></g></g><g><use xlink:href="#d6dMLWb5G" opacity="1" fill="#ffffff" fill-opacity="1"></use><g><use xlink:href="#d6dMLWb5G" opacity="1" fill-opacity="0" stroke="#000000" stroke-width="1" stroke-opacity="1"></use></g></g><g><use xlink:href="#a5PCzMTos" opacity="1" fill="#000000" fill-opacity="1"></use><g><use xlink:href="#a5PCzMTos" opacity="1" fill-opacity="0" stroke="#000000" stroke-width="1" stroke-opacity="1"></use></g></g><g><use xlink:href="#b10pO4e7ZG" opacity="1" fill="#6e574f" fill-opacity="1"></use><g><use xlink:href="#b10pO4e7ZG" opacity="1" fill-opacity="0" stroke="#000000" stroke-width="1" stroke-opacity="1"></use></g></g><g><g><use xlink:href="#d7As7X8X08" opacity="1" fill-opacity="0" stroke="#000000" stroke-width="1" stroke-opacity="1"></use></g></g><g><use xlink:href="#aeW3ZdI4F" opacity="1" fill="#6b5147" fill-opacity="1"></use><g><use xlink:href="#aeW3ZdI4F" opacity="1" fill-opacity="0" stroke="#000000" stroke-width="1" stroke-opacity="1"></use></g></g><g><use xlink:href="#b1yfTlzZtM" opacity="1" fill="#6b5147" fill-opacity="1"></use><g><use xlink:href="#b1yfTlzZtM" opacity="1" fill-opacity="0" stroke="#000000" stroke-width="1" stroke-opacity="1"></use></g></g><g><g><use xlink:href="#e52xEiQbd" opacity="1" fill-opacity="0" stroke="#000000" stroke-width="1" stroke-opacity="1"></use></g></g><g><g><use xlink:href="#g1wG7OtAk4" opacity="1" fill-opacity="0" stroke="#000000" stroke-width="1" stroke-opacity="1"></use></g></g><g><g><use xlink:href="#a6YoBpMjF" opacity="1" fill-opacity="0" stroke="#000000" stroke-width="1" stroke-opacity="1"></use></g></g><g><use xlink:href="#cQq7Ig7wq" opacity="1" fill="#6b5147" fill-opacity="1"></use><g><use xlink:href="#cQq7Ig7wq" opacity="1" fill-opacity="0" stroke="#6b5147" stroke-width="1" stroke-opacity="1"></use></g></g><g><use xlink:href="#khmTUF8oO" opacity="1" fill="#000000" fill-opacity="1"></use><g><use xlink:href="#khmTUF8oO" opacity="1" fill-opacity="0" stroke="#000000" stroke-width="1" stroke-opacity="1"></use></g></g><g><g><use xlink:href="#dcweBed5O" opacity="1" fill-opacity="0" stroke="#000000" stroke-width="1" stroke-opacity="1"></use></g></g><g><use xlink:href="#b1cHyfO1XR" opacity="1" fill="#3e3735" fill-opacity="1"></use><g><use xlink:href="#b1cHyfO1XR" opacity="1" fill-opacity="0" stroke="#000000" stroke-width="1" stroke-opacity="1"></use></g></g><g><use xlink:href="#c4sJ0p8xE" opacity="1" fill="#362c28" fill-opacity="1"></use><g><use xlink:href="#c4sJ0p8xE" opacity="1" fill-opacity="0" stroke="#000000" stroke-width="1" stroke-opacity="1"></use></g></g><g><use xlink:href="#odzP0UsVo" opacity="1" fill="#1b1310" fill-opacity="1"></use><g><use xlink:href="#odzP0UsVo" opacity="1" fill-opacity="0" stroke="#000000" stroke-width="1" stroke-opacity="1"></use></g></g><g><use xlink:href="#dl7LZPgBO" opacity="1" fill="#1b1310" fill-opacity="1"></use><g><use xlink:href="#dl7LZPgBO" opacity="1" fill-opacity="0" stroke="#000000" stroke-width="1" stroke-opacity="1"></use></g></g><g><g><use xlink:href="#crdfGVew" opacity="1" fill-opacity="0" stroke="#000000" stroke-width="1" stroke-opacity="1"></use></g></g><g><use xlink:href="#b4MaakTGHf" opacity="1" fill="#291f1a" fill-opacity="1"></use><g><use xlink:href="#b4MaakTGHf" opacity="1" fill-opacity="0" stroke="#000000" stroke-width="1" stroke-opacity="1"></use></g></g><g><use xlink:href="#a2fJFleuDJ" opacity="1" fill="#000000" fill-opacity="1"></use><g><use xlink:href="#a2fJFleuDJ" opacity="1" fill-opacity="0" stroke="#000000" stroke-width="1" stroke-opacity="1"></use></g></g><g><g><use xlink:href="#b1eWQMsckN" opacity="1" fill-opacity="0" stroke="#000000" stroke-width="1" stroke-opacity="1"></use></g></g><g><g><use xlink:href="#gOTLwPVT" opacity="1" fill-opacity="0" stroke="#000000" stroke-width="1" stroke-opacity="1"></use></g></g><g><g><use xlink:href="#a7j3LFVp5x" opacity="1" fill-opacity="0" stroke="#000000" stroke-width="1" stroke-opacity="1"></use></g></g><g><g><use xlink:href="#bq9wzd08n" opacity="1" fill-opacity="0" stroke="#000000" stroke-width="1" stroke-opacity="1"></use></g></g><g><g><use xlink:href="#d1VhZYdZF7" opacity="1" fill-opacity="0" stroke="#000000" stroke-width="1" stroke-opacity="1"></use></g></g><g><g><use xlink:href="#dq2a47xLQ" opacity="1" fill-opacity="0" stroke="#000000" stroke-width="1" stroke-opacity="1"></use></g></g><g><g><use xlink:href="#a2WmIdGIOQ" opacity="1" fill-opacity="0" stroke="#000000" stroke-width="1" stroke-opacity="1"></use></g></g><g><g><use xlink:href="#b2ilaNibcs" opacity="1" fill-opacity="0" stroke="#000000" stroke-width="1" stroke-opacity="1"></use></g></g><g><g><use xlink:href="#bKD7a2zgn" opacity="1" fill-opacity="0" stroke="#000000" stroke-width="1" stroke-opacity="1"></use></g></g><g><g><use xlink:href="#b118rPVwcp" opacity="1" fill-opacity="0" stroke="#000000" stroke-width="1" stroke-opacity="1"></use></g></g><g><g><use xlink:href="#a3uLkwZJj" opacity="1" fill-opacity="0" stroke="#000000" stroke-width="1" stroke-opacity="1"></use></g></g><g><g><use xlink:href="#a4tzJiW2t" opacity="1" fill-opacity="0" stroke="#000000" stroke-width="1" stroke-opacity="1"></use></g></g><g><g><use xlink:href="#acSf9jY7S" opacity="1" fill-opacity="0" stroke="#000000" stroke-width="1" stroke-opacity="1"></use></g></g><g><g><use xlink:href="#a1ChUtbumA" opacity="1" fill-opacity="0" stroke="#000000" stroke-width="1" stroke-opacity="1"></use></g></g><g><g><use xlink:href="#e1WILbMql0" opacity="1" fill-opacity="0" stroke="#000000" stroke-width="1" stroke-opacity="1"></use></g></g><g><g><use xlink:href="#aprGimuqq" opacity="1" fill-opacity="0" stroke="#000000" stroke-width="1" stroke-opacity="1"></use></g></g><g><g><use xlink:href="#c5qF9jZ8mb" opacity="1" fill-opacity="0" stroke="#000000" stroke-width="1" stroke-opacity="1"></use></g></g><g><g><use xlink:href="#dtU9nfkaj" opacity="1" fill-opacity="0" stroke="#000000" stroke-width="1" stroke-opacity="1"></use></g></g><g><g><use xlink:href="#b4GcJV8wo" opacity="1" fill-opacity="0" stroke="#000000" stroke-width="1" stroke-opacity="1"></use></g></g><g><g><use xlink:href="#a1Uu1kTTwN" opacity="1" fill-opacity="0" stroke="#000000" stroke-width="1" stroke-opacity="1"></use></g></g><g><g><use xlink:href="#b9YnPrmk9" opacity="1" fill-opacity="0" stroke="#000000" stroke-width="1" stroke-opacity="1"></use></g></g><g><g><use xlink:href="#fC2gkHmw0" opacity="1" fill-opacity="0" stroke="#000000" stroke-width="1" stroke-opacity="1"></use></g></g><g><g><use xlink:href="#a41nYDBfBq" opacity="1" fill-opacity="0" stroke="#000000" stroke-width="1" stroke-opacity="1"></use></g></g><g><g><use xlink:href="#b7BGBHQpgo" opacity="1" fill-opacity="0" stroke="#000000" stroke-width="1" stroke-opacity="1"></use></g></g><g><g><use xlink:href="#i62IMwF4k1" opacity="1" fill-opacity="0" stroke="#000000" stroke-width="1" stroke-opacity="1"></use></g></g><g><g><use xlink:href="#dqwigF9y1" opacity="1" fill-opacity="0" stroke="#000000" stroke-width="1" stroke-opacity="1"></use></g></g><g><g><use xlink:href="#c2Cmi9jQCh" opacity="1" fill-opacity="0" stroke="#000000" stroke-width="1" stroke-opacity="1"></use></g></g><g><g><use xlink:href="#a7cXRykPR" opacity="1" fill-opacity="0" stroke="#000000" stroke-width="1" stroke-opacity="1"></use></g></g><g><g><use xlink:href="#b50aC9a6iG" opacity="1" fill-opacity="0" stroke="#000000" stroke-width="1" stroke-opacity="1"></use></g></g><g><g><use xlink:href="#a2dmA41pqS" opacity="1" fill-opacity="0" stroke="#000000" stroke-width="1" stroke-opacity="1"></use></g></g><g><g><use xlink:href="#bcfHeHMgZ" opacity="1" fill-opacity="0" stroke="#000000" stroke-width="1" stroke-opacity="1"></use></g></g><g><g><use xlink:href="#b3S4XPvI" opacity="1" fill-opacity="0" stroke="#000000" stroke-width="1" stroke-opacity="1"></use></g></g><g><g><use xlink:href="#b2XJcSZ8AC" opacity="1" fill-opacity="0" stroke="#000000" stroke-width="1" stroke-opacity="1"></use></g></g><g><g><use xlink:href="#e1rTM3mUgT" opacity="1" fill-opacity="0" stroke="#000000" stroke-width="1" stroke-opacity="1"></use></g></g><g><g><use xlink:href="#e2s9nlLdgd" opacity="1" fill-opacity="0" stroke="#000000" stroke-width="1" stroke-opacity="1"></use></g></g><g><g><use xlink:href="#c6kdtnMuGy" opacity="1" fill-opacity="0" stroke="#000000" stroke-width="1" stroke-opacity="1"></use></g></g></g></g></svg>